<svg version="1.1" id="Layer_1" xmlns="http://www.w3.org/2000/svg" xmlns:xlink="http://www.w3.org/1999/xlink" x="0px" y="0px"
	 width="100%" viewBox="0 0 1080 1080" enable-background="new 0 0 1080 1080" xml:space="preserve">
<path fill="#3066BE" opacity="1.000000" stroke="none" 
	d="
M491.000000,1081.000000 
	C327.352173,1081.000000 164.204330,1081.000000 1.028243,1081.000000 
	C1.028243,721.060364 1.028243,361.120728 1.028243,1.090556 
	C360.898041,1.090556 720.796143,1.090556 1080.847168,1.090556 
	C1080.847168,360.999939 1080.847168,720.999939 1080.847168,1081.000000 
	C884.453613,1081.000000 687.976807,1081.000000 491.000000,1081.000000 
M681.956116,430.956787 
	C684.409912,431.304596 686.862061,431.938690 689.317871,431.953522 
	C704.648743,432.046112 719.980469,432.008453 735.311951,431.997803 
	C748.719910,431.988464 757.054932,423.677063 757.092712,410.190521 
	C757.137085,394.359253 757.853455,378.481720 756.885864,362.709686 
	C755.972961,347.830048 754.852905,332.637146 751.057922,318.314972 
	C731.454651,244.332443 666.371704,194.807968 589.035645,194.209503 
	C557.041443,193.961899 525.042542,193.991547 493.047974,194.212830 
	C453.044250,194.489502 416.882629,206.453064 386.068024,232.195740 
	C346.296173,265.421356 324.971405,308.000854 324.898743,360.243530 
	C324.724182,485.727997 324.826141,611.212830 324.888519,736.697571 
	C324.892395,744.515137 325.121277,752.372986 325.915466,760.143677 
	C334.418396,843.340820 406.244385,908.165039 489.765533,908.166870 
	C523.428101,908.167603 557.090698,908.159668 590.753235,908.168884 
	C626.750122,908.178650 659.435059,897.506104 688.168701,876.099426 
	C732.805847,842.844604 756.515686,798.102417 756.949402,742.246094 
	C757.530457,667.426331 757.099121,592.598816 757.099548,517.774597 
	C757.099548,516.941772 757.082703,516.107605 757.036011,515.276245 
	C756.445007,504.760498 748.173462,496.235229 737.665955,496.072449 
	C721.171936,495.816925 704.668518,495.829498 688.173889,496.064087 
	C676.983521,496.223236 668.951660,504.781738 668.810608,516.053650 
	C668.760559,520.052490 668.523376,524.076111 668.856079,528.047852 
	C669.969543,541.339600 660.689758,552.853943 644.494629,552.326233 
	C623.852356,551.653687 603.171631,552.179504 582.507446,552.160095 
	C541.180237,552.121338 499.829987,552.884827 458.533844,551.727112 
	C430.498749,550.941101 409.904572,536.235046 397.101990,511.211212 
	C386.866669,491.205353 387.987579,469.449341 390.786224,448.492889 
	C395.581512,412.585175 424.846588,387.728424 461.884918,387.351898 
	C524.037598,386.720032 586.201416,387.138794 648.360352,387.210297 
	C657.377930,387.220642 665.263367,392.709320 667.523743,400.543732 
	C668.520142,403.997070 668.707581,407.764313 668.753540,411.395477 
	C668.869080,420.515411 672.891113,426.945038 681.956116,430.956787 
z"/>
<path fill="#FFFFFF" opacity="1.000000" stroke="none" 
	d="
M681.578613,430.825928 
	C672.891113,426.945038 668.869080,420.515411 668.753540,411.395477 
	C668.707581,407.764313 668.520142,403.997070 667.523743,400.543732 
	C665.263367,392.709320 657.377930,387.220642 648.360352,387.210297 
	C586.201416,387.138794 524.037598,386.720032 461.884918,387.351898 
	C424.846588,387.728424 395.581512,412.585175 390.786224,448.492889 
	C387.987579,469.449341 386.866669,491.205353 397.101990,511.211212 
	C409.904572,536.235046 430.498749,550.941101 458.533844,551.727112 
	C499.829987,552.884827 541.180237,552.121338 582.507446,552.160095 
	C603.171631,552.179504 623.852356,551.653687 644.494629,552.326233 
	C660.689758,552.853943 669.969543,541.339600 668.856079,528.047852 
	C668.523376,524.076111 668.760559,520.052490 668.810608,516.053650 
	C668.951660,504.781738 676.983521,496.223236 688.173889,496.064087 
	C704.668518,495.829498 721.171936,495.816925 737.665955,496.072449 
	C748.173462,496.235229 756.445007,504.760498 757.036011,515.276245 
	C757.082703,516.107605 757.099548,516.941772 757.099548,517.774597 
	C757.099121,592.598816 757.530457,667.426331 756.949402,742.246094 
	C756.515686,798.102417 732.805847,842.844604 688.168701,876.099426 
	C659.435059,897.506104 626.750122,908.178650 590.753235,908.168884 
	C557.090698,908.159668 523.428101,908.167603 489.765533,908.166870 
	C406.244385,908.165039 334.418396,843.340820 325.915466,760.143677 
	C325.121277,752.372986 324.892395,744.515137 324.888519,736.697571 
	C324.826141,611.212830 324.724182,485.727997 324.898743,360.243530 
	C324.971405,308.000854 346.296173,265.421356 386.068024,232.195740 
	C416.882629,206.453064 453.044250,194.489502 493.047974,194.212830 
	C525.042542,193.991547 557.041443,193.961899 589.035645,194.209503 
	C666.371704,194.807968 731.454651,244.332443 751.057922,318.314972 
	C754.852905,332.637146 755.972961,347.830048 756.885864,362.709686 
	C757.853455,378.481720 757.137085,394.359253 757.092712,410.190521 
	C757.054932,423.677063 748.719910,431.988464 735.311951,431.997803 
	C719.980469,432.008453 704.648743,432.046112 689.317871,431.953522 
	C686.862061,431.938690 684.409912,431.304596 681.578613,430.825928 
z"/>
</svg>